<?xml version="1.0" standalone="no"?>
<!DOCTYPE svg PUBLIC "-//W3C//DTD SVG 20010904//EN"
 "http://www.w3.org/TR/2001/REC-SVG-20010904/DTD/svg10.dtd">
<svg version="1.0" xmlns="http://www.w3.org/2000/svg"
 width="503.000000pt" height="496.000000pt" viewBox="0 0 503.000000 496.000000"
 preserveAspectRatio="xMidYMid meet">

<g transform="translate(0.000000,496.000000) scale(0.100000,-0.100000)"
fill="#000000" stroke="none">
<path d="M171 2505 l1 -2375 2379 0 2379 0 0 2375 0 2375 -1165 0 -1165 0 2
-257 3 -258 905 -1 905 -2 0 -1858 0 -1859 -1862 -3 -1863 -2 0 1860 0 1859
346 3 c190 2 348 1 350 -1 2 -2 4 -683 4 -1513 l0 -1508 255 0 255 0 0 440 c0
242 3 440 8 440 4 0 205 -198 447 -440 l440 -440 365 0 365 0 -583 583 -582
582 582 583 583 582 -365 0 -365 0 -447 -447 -448 -448 0 1053 0 1052 -865 0
-866 0 2 -2375z"/>
</g>
</svg>
